<svg width="24" height="16" viewBox="0 0 24 16" fill="none" xmlns="http://www.w3.org/2000/svg">
<path d="M6.71967 13.0479C7.0395 13.0479 7.34395 13.0195 7.63027 12.9553C7.92113 12.8922 8.17847 12.7911 8.39658 12.6423C8.61361 12.4991 8.79422 12.3026 8.92491 12.0537C9.05611 11.8061 9.11916 11.4846 9.11916 11.0966C9.11916 10.3359 8.90442 9.79511 8.47898 9.46736C8.05177 9.14355 7.48313 8.98282 6.78384 8.98282H3.24994V13.0479H6.71967ZM6.53958 6.76394C7.11502 6.76394 7.5922 6.62758 7.96997 6.35041C8.34375 6.07713 8.52441 5.62666 8.52441 5.00749C8.52441 4.66437 8.46478 4.38035 8.34375 4.15994C8.21822 3.93954 8.05177 3.76741 7.84275 3.64638C7.63481 3.52085 7.39964 3.43451 7.12753 3.38735C6.85941 3.33509 6.57937 3.31465 6.29133 3.31465H3.24994V6.76394H6.53958ZM6.95995 0.799805C7.66608 0.799805 8.30344 0.860602 8.88572 0.987305C9.46514 1.10998 9.95878 1.31505 10.3769 1.59626C10.7881 1.87746 11.1102 2.25124 11.3409 2.72215C11.5653 3.18626 11.6783 3.76741 11.6783 4.45418C11.6783 5.19719 11.5102 5.8181 11.1721 6.3146C10.8324 6.80997 10.3331 7.2161 9.6668 7.53194C10.574 7.79327 11.2477 8.25283 11.6936 8.90669C12.1418 9.56505 12.3617 10.3524 12.3617 11.2761C12.3617 12.0248 12.2185 12.669 11.9317 13.2115C11.6425 13.7602 11.2488 14.205 10.7637 14.5481C10.2746 14.8941 9.71395 15.1486 9.08452 15.3139C8.46248 15.4786 7.81659 15.5621 7.15425 15.5621H0V0.799805H6.95995Z" fill="white"/>
<path d="M20.3681 7.38262C20.0187 6.99693 19.4285 6.78787 18.7076 6.78787C18.2384 6.78787 17.8504 6.8668 17.5391 7.02759C17.2346 7.18663 16.9858 7.38374 16.7955 7.61666C16.6058 7.85301 16.4774 8.10295 16.4018 8.36995C16.3269 8.6301 16.2814 8.86584 16.2683 9.07434H21.0446C20.9748 8.3256 20.7186 7.77177 20.3681 7.38262ZM16.9943 12.9991C17.4346 13.4286 18.0702 13.6444 18.8939 13.6444C19.4859 13.6444 19.9971 13.495 20.4266 13.1962C20.852 12.898 21.1111 12.5793 21.2111 12.2487H23.7969C23.3811 13.5353 22.7511 14.4539 21.8905 15.0072C21.0401 15.5622 20.0039 15.8389 18.7957 15.8389C17.9538 15.8389 17.196 15.7025 16.5154 15.4344C15.8355 15.1623 15.2674 14.7817 14.7891 14.2846C14.3233 13.7858 13.9614 13.1962 13.7035 12.5038C13.4485 11.8147 13.3201 11.0518 13.3201 10.2252C13.3201 9.42594 13.4536 8.67951 13.7149 7.98932C13.9807 7.29684 14.35 6.69923 14.8346 6.19823C15.3202 5.69432 15.8957 5.29668 16.566 5.00582C17.2369 4.7167 17.9765 4.57129 18.7957 4.57129C19.7 4.57129 20.4913 4.7451 21.1707 5.09957C21.8467 5.44949 22.4017 5.92326 22.8374 6.51632C23.2726 7.10826 23.5833 7.78537 23.777 8.54488C23.969 9.30327 24.0366 10.0951 23.9815 10.9245H16.2683C16.2683 11.7698 16.5535 12.5696 16.9943 12.9991Z" fill="white"/>
<path d="M21.6513 1.79053H15.6672V3.24703H21.6513V1.79053Z" fill="white"/>
</svg>
