<svg width="19" height="19" viewBox="0 0 19 19" fill="none" xmlns="http://www.w3.org/2000/svg">
<path d="M13.4575 0H5.54087C2.48583 0 0 2.48663 0 5.54246V13.4591C0 16.5142 2.48663 19 5.54246 19H13.4591C16.5142 19 19 16.5134 19 13.4575V5.54087C19 2.48583 16.5134 0 13.4575 0ZM9.5 14.25C6.88038 14.25 4.75 12.1196 4.75 9.5C4.75 6.88038 6.88038 4.75 9.5 4.75C12.1196 4.75 14.25 6.88038 14.25 9.5C14.25 12.1196 12.1196 14.25 9.5 14.25ZM15.0417 4.75C14.6047 4.75 14.25 4.39533 14.25 3.95833C14.25 3.52133 14.6047 3.16667 15.0417 3.16667C15.4787 3.16667 15.8333 3.52133 15.8333 3.95833C15.8333 4.39533 15.4787 4.75 15.0417 4.75Z" fill="white"/>
</svg>
