<svg width="24" height="15" viewBox="0 0 24 15" fill="none" xmlns="http://www.w3.org/2000/svg">
<path d="M0.41368 0.772279H4.38715C4.47022 0.772144 4.55136 0.797323 4.61976 0.844463C4.68816 0.891603 4.74057 0.958465 4.77002 1.03614C5.20979 2.1692 7.03614 6.60315 8.70727 6.96531C9.94898 6.96531 9.50921 1.06719 7.9312 1.06719C7.5173 1.06719 8.66588 0.332506 8.74349 0.301464C10.2099 -0.100488 11.7575 -0.100488 13.224 0.301464C14.0156 0.632587 14.1501 1.5587 14.1708 2.34511C14.1915 3.13153 13.2913 6.48415 14.4761 6.84631C16.0282 7.3223 18.0253 2.45376 18.4909 1.25861C18.5212 1.18191 18.574 1.11615 18.6423 1.06998C18.7106 1.02381 18.7913 0.999388 18.8738 0.999925H23.2974C23.3657 0.999711 23.4331 1.01643 23.4934 1.04859C23.5537 1.08075 23.6051 1.12736 23.6431 1.18424C23.681 1.24111 23.7042 1.3065 23.7107 1.37455C23.7172 1.4426 23.7067 1.5112 23.6802 1.57422C22.769 3.65291 21.6766 5.64735 20.4156 7.53443C20.3084 7.69015 20.2581 7.87805 20.2731 8.06651C20.2882 8.25497 20.3677 8.43249 20.4984 8.56919C21.8228 9.98681 25.4445 14.0017 23.375 14.0017H18.91C18.7946 14.002 18.6805 13.9776 18.5752 13.9304C18.4699 13.8831 18.3759 13.8139 18.2995 13.7275C17.6062 12.9617 15.5884 10.8301 14.6778 11.0009C13.9225 11.1406 13.85 12.4237 13.8862 13.2618C13.8977 13.4781 13.8239 13.6902 13.6807 13.8527C13.5376 14.0151 13.3365 14.1151 13.1205 14.131C12.3289 14.1776 11.2476 14.1983 11.1493 14.1931C7.99329 13.9913 6.12555 11.8856 4.34059 9.53669C2.47086 7.04642 1.01232 4.27258 0.0204714 1.3207C0.000198097 1.25824 -0.00511331 1.19189 0.00496544 1.127C0.0150442 1.06211 0.0402313 1.0005 0.0784951 0.94713C0.116759 0.893762 0.167029 0.850133 0.225251 0.819761C0.283473 0.789389 0.348018 0.773125 0.41368 0.772279Z" fill="white"/>
</svg>
